<svg width="30" height="21" viewBox="0 0 30 21" fill="none" xmlns="http://www.w3.org/2000/svg">
<path d="M3.75 12.375L2.8125 10.5H9.375L8.625 8.625H2.5L1.5625 6.75H11.3125L10.5625 4.875H1.3875L0.3125 3H5C5 2.33696 5.26339 1.70107 5.73223 1.23223C6.20107 0.763392 6.83696 0.5 7.5 0.5H22.5V5.5H26.25L30 10.5V16.75H27.5C27.5 17.7446 27.1049 18.6984 26.4016 19.4017C25.6984 20.1049 24.7446 20.5 23.75 20.5C22.7554 20.5 21.8016 20.1049 21.0983 19.4017C20.3951 18.6984 20 17.7446 20 16.75H15C15 17.7446 14.6049 18.6984 13.9016 19.4017C13.1984 20.1049 12.2446 20.5 11.25 20.5C10.2554 20.5 9.30161 20.1049 8.59835 19.4017C7.89509 18.6984 7.5 17.7446 7.5 16.75H5V12.375H3.75ZM23.75 18.625C24.2473 18.625 24.7242 18.4275 25.0758 18.0758C25.4275 17.7242 25.625 17.2473 25.625 16.75C25.625 16.2527 25.4275 15.7758 25.0758 15.4242C24.7242 15.0725 24.2473 14.875 23.75 14.875C23.2527 14.875 22.7758 15.0725 22.4242 15.4242C22.0725 15.7758 21.875 16.2527 21.875 16.75C21.875 17.2473 22.0725 17.7242 22.4242 18.0758C22.7758 18.4275 23.2527 18.625 23.75 18.625ZM25.625 7.375H22.5V10.5H28.075L25.625 7.375ZM11.25 18.625C11.7473 18.625 12.2242 18.4275 12.5758 18.0758C12.9275 17.7242 13.125 17.2473 13.125 16.75C13.125 16.2527 12.9275 15.7758 12.5758 15.4242C12.2242 15.0725 11.7473 14.875 11.25 14.875C10.7527 14.875 10.2758 15.0725 9.92417 15.4242C9.57254 15.7758 9.375 16.2527 9.375 16.75C9.375 17.2473 9.57254 17.7242 9.92417 18.0758C10.2758 18.4275 10.7527 18.625 11.25 18.625Z" fill="white"/>
</svg>
